<svg width="74" height="76" viewBox="0 0 74 76" fill="none" xmlns="http://www.w3.org/2000/svg">
<path d="M37.8979 27.8623C36.4498 27.8623 35.0125 28.1102 33.6482 28.5953L11.3977 36.5064L37.8979 46.5787L38.2656 46.2927V27.8702C38.143 27.8666 38.0205 27.8623 37.8979 27.8623Z" fill="#05858D"/>
<path d="M23.9305 32.0504L11.3977 36.5064L23.7888 41.216C21.0002 38.8448 21.0625 34.338 23.9305 32.0504Z" fill="#05858D"/>
<path d="M42.1476 28.5953C40.7833 28.1102 39.3459 27.8623 37.8979 27.8623V46.4303L64.3981 36.5064L42.1476 28.5953Z" fill="#0296E5"/>
<path d="M37.8979 45.9849L33.4168 51.2808C33.0454 51.7937 32.3798 51.9997 31.7835 51.7864L11.3977 44.4949V64.1288C11.3977 65.2927 12.1291 66.331 13.225 66.7231L34.3073 74.2637C35.4594 74.6758 36.6741 74.8866 37.8977 74.8866C38.0203 74.8866 38.143 74.8828 38.2654 74.8787V46.4316L37.8979 45.9849Z" fill="#0296E5"/>
<path d="M16.7031 65.6451V46.3924L11.3978 44.4948V64.1287C11.3978 65.2926 12.1292 66.3309 13.2251 66.7229L17.9966 68.4296C17.1933 67.7496 16.7031 66.7402 16.7031 65.6451Z" fill="#05858D"/>
<path d="M44.0123 51.9348C43.416 52.1482 42.7505 51.9421 42.379 51.4293L37.8979 45.9851V74.8865C39.1216 74.8865 40.3362 74.6759 41.4885 74.2637L62.5708 66.7231C63.6667 66.331 64.3981 65.2927 64.3981 64.1288V44.6433L44.0123 51.9348Z" fill="#0296E5"/>
<path d="M50.3957 4.42223C49.1638 3.7921 48.1575 2.78404 47.5302 1.5505C47.3939 1.28257 47.1203 1.1123 46.8197 1.1123C46.519 1.1123 46.2456 1.28257 46.1093 1.5505C45.482 2.78404 44.4757 3.79195 43.2438 4.42223C42.9768 4.55879 42.8074 4.83178 42.8074 5.13177V5.15137C42.8074 5.4481 42.9716 5.72197 43.2359 5.85691C44.4638 6.48318 45.4676 7.48455 46.0968 8.71067C46.2319 8.97401 46.5053 9.13729 46.8013 9.13729H46.8384C47.1344 9.13729 47.4079 8.97401 47.5429 8.71067C48.1722 7.48455 49.1759 6.48318 50.4038 5.85691C50.6682 5.72212 50.8324 5.44825 50.8324 5.15137V5.13177C50.8321 4.83192 50.6627 4.55894 50.3957 4.42223Z" fill="#FFE02F"/>
<path d="M32.4297 7.71343C31.5077 7.24184 30.7547 6.48748 30.2852 5.56435C30.1832 5.36381 29.9785 5.23645 29.7535 5.23645C29.5284 5.23645 29.3238 5.36381 29.2218 5.56435C28.7523 6.48748 27.9992 7.24184 27.0773 7.71343C26.8775 7.8157 26.7507 8.01995 26.7507 8.24439V8.25908C26.7507 8.48115 26.8736 8.68614 27.0715 8.78708C27.9905 9.25569 28.7417 10.0052 29.2126 10.9228C29.3137 11.1199 29.5184 11.2421 29.7398 11.2421H29.7676C29.989 11.2421 30.1937 11.1199 30.2948 10.9228C30.7657 10.0052 31.5169 9.25569 32.4359 8.78708C32.6338 8.68614 32.7567 8.48115 32.7567 8.25908V8.24439C32.7562 8.01995 32.6295 7.8157 32.4297 7.71343Z" fill="#FFEA7E"/>
<path d="M46.2417 5.85691C45.9773 5.72212 45.8132 5.44825 45.8132 5.15137V5.13177C45.8132 4.83178 45.9825 4.55879 46.2496 4.42223C47.0503 4.01268 47.7548 3.44267 48.3227 2.75569C48.0168 2.38563 47.7499 1.98231 47.5302 1.5505C47.3939 1.28257 47.1203 1.1123 46.8197 1.1123C46.5192 1.1123 46.2456 1.28257 46.1093 1.5505C45.482 2.78404 44.4757 3.79195 43.2438 4.42223C42.9768 4.55879 42.8074 4.83178 42.8074 5.13177V5.15137C42.8074 5.4481 42.9716 5.72197 43.2359 5.85691C44.4638 6.48318 45.4676 7.48455 46.0968 8.71067C46.2319 8.97401 46.5053 9.13729 46.8013 9.13729H46.8384C47.1344 9.13729 47.4079 8.97401 47.5429 8.71067C47.7601 8.28762 48.0227 7.89202 48.3229 7.52864C47.753 6.83899 47.0458 6.26705 46.2417 5.85691Z" fill="#FBC700"/>
<path d="M29.669 8.78708C29.4712 8.68614 29.3484 8.48115 29.3484 8.25908V8.24439C29.3484 8.01995 29.4752 7.81555 29.675 7.71343C30.1958 7.44698 30.66 7.08776 31.0525 6.66145C30.7502 6.33311 30.4896 5.96602 30.2853 5.56435C30.1834 5.36381 29.9787 5.23645 29.7536 5.23645C29.5286 5.23645 29.3239 5.36381 29.2219 5.56435C28.7524 6.48748 27.9994 7.24184 27.0774 7.71343C26.8776 7.8157 26.7509 8.01995 26.7509 8.24439V8.25908C26.7509 8.48115 26.8738 8.68614 27.0715 8.78708C27.9905 9.25569 28.7417 10.0052 29.2126 10.9228C29.3137 11.1199 29.5184 11.2421 29.7398 11.2421H29.7676C29.9891 11.2421 30.1938 11.1199 30.2948 10.9228C30.4976 10.5278 30.755 10.1664 31.0526 9.84261C30.6585 9.41437 30.1923 9.05397 29.669 8.78708Z" fill="#FFE02F"/>
<path d="M68.3924 42.0212L64.3979 36.5065L37.8977 45.985L42.3788 52.1714C42.7504 52.6842 43.4158 52.8903 44.0121 52.677L67.7185 44.1978C68.6126 43.8782 68.9494 42.7899 68.3924 42.0212Z" fill="#0296E5"/>
<path d="M7.40332 42.0212L11.3978 36.5065L37.898 45.985L33.4169 52.1714C33.0454 52.6842 32.3799 52.8903 31.7836 52.677L8.07709 44.1978C7.18318 43.8782 6.84637 42.7899 7.40332 42.0212Z" fill="#0296E5"/>
<path d="M11.6921 43.5973L15.7108 38.0492L11.3977 36.5065L7.40332 42.0212C6.84637 42.79 7.18333 43.8782 8.07709 44.1979L11.7848 45.5241C11.3293 45.0053 11.2493 44.2088 11.6921 43.5973Z" fill="#05858D"/>
<path d="M10.5982 35.8535L6.60382 41.368C5.6112 42.7383 6.21 44.6759 7.8044 45.246L10.3867 46.1696V64.1287C10.3867 65.7586 11.4177 67.2225 12.9525 67.7713L34.0346 75.3119C36.5555 76.2138 39.3581 76.2446 41.9654 75.3119L63.0477 67.7713C64.5824 67.2225 65.6135 65.7586 65.6135 64.1287V58.4463C65.6135 57.8313 65.1152 57.333 64.5002 57.333C63.8852 57.333 63.3869 57.8313 63.3869 58.4463V64.1287C63.3869 64.8204 62.9493 65.4418 62.2979 65.6749L41.2155 73.2155C40.5324 73.4598 39.8288 73.6247 39.1133 73.7085V49.4197L41.5795 52.8244C42.2325 53.7264 43.431 54.1042 44.4895 53.7253C45.6693 53.3032 62.8648 47.1529 63.387 46.966V53.2507C63.387 53.8657 63.8853 54.364 64.5003 54.364C65.1153 54.364 65.6136 53.8657 65.6136 53.2507V46.1696L68.1959 45.246C69.7891 44.6762 70.3897 42.7389 69.3962 41.3679L69.3963 41.368L65.402 35.8535C65.2881 35.696 65.0884 35.534 64.8732 35.4576L55.2229 32.0265C54.6434 31.8201 54.0069 32.123 53.801 32.7025C53.595 33.2819 53.8977 33.9184 54.477 34.1245L61.1857 36.5097L39.1132 44.4044V29.0289C40.0546 29.1196 40.9802 29.3255 41.8767 29.6444L49.5542 32.3742C50.1335 32.5805 50.7702 32.2777 50.9761 31.6982C51.1821 31.1188 50.8794 30.4823 50.3001 30.2763L42.6226 27.5465C39.7074 26.5098 36.4435 26.456 33.3771 27.5465L11.1268 35.4576C10.9145 35.5332 10.7175 35.6887 10.5982 35.8535ZM8.40692 42.6743L11.9113 37.8361L36.2278 46.5335C35.4026 47.6726 36.1221 46.6795 32.6171 51.5184C32.5365 51.6296 32.3894 51.6747 32.2606 51.6288C31.8464 51.4807 8.98718 43.3045 8.55418 43.1496C8.35868 43.0796 8.28505 42.8425 8.40692 42.6743ZM13.7021 65.6749C13.0507 65.442 12.6131 64.8204 12.6131 64.1287V46.966L31.5108 53.7253C32.5791 54.1075 33.7689 53.7171 34.4156 52.8309C34.4172 52.8287 34.419 52.8268 34.4207 52.8245C34.4207 52.8244 34.4207 52.8244 34.4207 52.8244L36.8867 49.4197V73.7083C36.1712 73.6246 35.4675 73.4597 34.7843 73.2155L13.7021 65.6749ZM67.5931 42.6743C67.7148 42.8424 67.6412 43.0796 67.446 43.1496C67.2232 43.2293 43.9737 51.545 43.7396 51.6287C43.6108 51.675 43.4635 51.6297 43.3829 51.5184L39.7721 46.5335L64.0887 37.8361L67.5931 42.6743ZM34.1232 29.6444C35.0196 29.3257 35.9451 29.1198 36.8866 29.0289V44.4044C35.9318 44.0628 15.6743 36.8173 14.8142 36.5096L34.1232 29.6444Z" fill="#252836"/>
<path d="M39.1132 23.2002V9.2864C39.1132 8.67141 38.6149 8.1731 37.9999 8.1731C37.3849 8.1731 36.8866 8.67141 36.8866 9.2864V23.2C36.8866 23.815 37.3849 24.3133 37.9999 24.3133C38.6149 24.3133 39.1132 23.815 39.1132 23.2002Z" fill="#FF8700"/>
<path d="M52.7415 11.4147C52.4235 11.5538 44.9403 14.9262 43.7031 24.2024C43.6143 24.8685 44.1318 25.463 44.8081 25.463C45.3575 25.463 45.8356 25.0562 45.9102 24.4966C46.3566 21.1494 47.7816 18.2802 50.1457 15.9687C51.9222 14.2315 53.5983 13.4706 53.6358 13.4539C54.1975 13.2067 54.4536 12.5513 54.2076 11.9887C53.9614 11.4254 53.3054 11.1686 52.7415 11.4147Z" fill="#FF8700"/>
<path d="M50.4791 26.5806C50.1736 27.1142 50.3586 27.7944 50.8922 28.0997C51.4251 28.4049 52.1057 28.2207 52.4113 27.6866C54.9972 23.1693 58.8382 21.4058 61.6053 20.7221C62.2022 20.5745 62.5665 19.971 62.4189 19.3741C62.2714 18.7772 61.6676 18.4126 61.0709 18.5605C58.4603 19.2059 53.613 21.1056 50.4791 26.5806Z" fill="#FF8700"/>
<path d="M21.7922 11.9887C21.546 12.5521 21.8029 13.2085 22.3663 13.4549C22.4326 13.4838 29.0165 16.4504 30.0896 24.4968C30.1711 25.1082 30.7331 25.5344 31.3404 25.4532C31.9499 25.3718 32.378 24.8119 32.2968 24.2024C31.0595 14.9262 23.5762 11.5536 23.2582 11.4147C22.6949 11.1686 22.0388 11.4255 21.7922 11.9887Z" fill="#FF8700"/>
<path d="M13.581 19.3741C13.4336 19.971 13.7978 20.5746 14.3946 20.7221C17.1616 21.406 21.0028 23.1695 23.5885 27.6866C23.8941 28.2207 24.5747 28.4051 25.1076 28.0998C25.6413 27.7943 25.8262 27.1141 25.5208 26.5806C22.387 21.1057 17.5394 19.2058 14.9289 18.5605C14.3316 18.4128 13.7285 18.7776 13.581 19.3741Z" fill="#FF8700"/>
<path d="M58.377 11.3214C57.762 11.3214 57.2637 11.8197 57.2637 12.4347C57.2637 13.0497 57.762 13.548 58.377 13.548H59.1523V14.3233C59.1523 14.9382 59.6506 15.4365 60.2656 15.4365C60.8805 15.4365 61.3788 14.9382 61.3788 14.3233V13.548H62.1541C62.7691 13.548 63.2674 13.0497 63.2674 12.4347C63.2674 11.8197 62.7691 11.3214 62.1541 11.3214H61.3788V10.5463C61.3788 9.93129 60.8805 9.43298 60.2656 9.43298C59.6506 9.43298 59.1523 9.93129 59.1523 10.5463V11.3214H58.377Z" fill="#FF8700"/>
<path d="M13.5484 26.749H12.7731C12.1582 26.749 11.6598 27.2473 11.6598 27.8623C11.6598 28.4773 12.1582 28.9756 12.7731 28.9756H13.5484V29.7509C13.5484 30.3659 14.0467 30.8642 14.6617 30.8642C15.2767 30.8642 15.775 30.3659 15.775 29.7509V28.9756H16.5503C17.1652 28.9756 17.6635 28.4773 17.6635 27.8623C17.6635 27.2473 17.1652 26.749 16.5503 26.749H15.775V25.9738C15.775 25.3588 15.2767 24.8605 14.6617 24.8605C14.0467 24.8605 13.5484 25.3588 13.5484 25.9738V26.749Z" fill="#FF8700"/>
<path d="M51.0049 3.43129C49.9875 2.91071 49.1421 2.06356 48.6246 1.04586C47.9148 -0.348742 45.9288 -0.348594 45.219 1.04615C44.7016 2.06356 43.8561 2.91086 42.8389 3.43115C41.445 4.14396 41.4544 6.14612 42.8322 6.84869C43.8451 7.36526 44.6892 8.20707 45.2084 9.21913C45.915 10.5958 47.9287 10.5961 48.6355 9.21899C49.1547 8.20722 49.9987 7.36541 51.0118 6.84854C52.3891 6.14612 52.399 4.14455 51.0049 3.43129ZM46.9217 7.72493C46.2825 6.67516 45.3885 5.78111 44.3387 5.14177C45.3889 4.50259 46.2827 3.60942 46.9219 2.56039C47.5612 3.60942 48.4548 4.50259 49.5047 5.14177C48.4551 5.78111 47.561 6.67501 46.9217 7.72493Z" fill="#252836"/>
<path d="M28.3239 11.4314C28.9564 12.6634 30.7546 12.6654 31.3873 11.4314C31.7492 10.726 32.3374 10.1392 33.0436 9.77909C34.2681 9.15475 34.2949 7.36545 33.0393 6.72255C33.0391 6.72241 33.039 6.72241 33.0388 6.72226C32.3297 6.35962 31.7406 5.76927 31.3797 5.05972C30.7451 3.81208 28.9665 3.81179 28.3315 5.05987C27.9708 5.76912 27.3816 6.35962 26.6716 6.7227C25.4345 7.35639 25.4252 9.14555 26.6678 9.77909C27.3738 10.1391 27.962 10.726 28.3239 11.4314ZM29.8555 6.82795C30.2474 7.37703 30.731 7.8605 31.2806 8.25208C30.7313 8.64382 30.2474 9.12759 29.8555 9.67711C29.4638 9.12788 28.98 8.64382 28.4306 8.25208C28.9802 7.86035 29.4639 7.37703 29.8555 6.82795Z" fill="#252836"/>
</svg>
