<svg width="24" height="20" viewBox="0 0 24 20" fill="none" xmlns="http://www.w3.org/2000/svg">
<path d="M20.8398 2.61183C20.329 2.10083 19.7226 1.69547 19.0551 1.41891C18.3876 1.14235 17.6722 1 16.9498 1C16.2273 1 15.5119 1.14235 14.8444 1.41891C14.1769 1.69547 13.5705 2.10083 13.0598 2.61183L11.9998 3.67183L10.9398 2.61183C9.90806 1.58013 8.50879 1.00053 7.04975 1.00053C5.59072 1.00053 4.19144 1.58013 3.15975 2.61183C2.12806 3.64352 1.54846 5.04279 1.54846 6.50183C1.54846 7.96086 2.12806 9.36013 3.15975 10.3918L4.21975 11.4518L11.9998 19.2318L19.7798 11.4518L20.8398 10.3918C21.3507 9.88107 21.7561 9.27464 22.0327 8.60718C22.3092 7.93972 22.4516 7.22431 22.4516 6.50183C22.4516 5.77934 22.3092 5.06393 22.0327 4.39647C21.7561 3.72901 21.3507 3.12258 20.8398 2.61183V2.61183Z" stroke="#67686D" stroke-width="1.18519" stroke-linecap="round" stroke-linejoin="round"/>
</svg>
